<svg height="512pt" viewBox="0 0 512 512" width="512pt" xmlns="http://www.w3.org/2000/svg" xmlns:xlink="http://www.w3.org/1999/xlink"><linearGradient id="a" gradientUnits="userSpaceOnUse" x1="0" x2="512" y1="256" y2="256"><stop offset="0" stop-color="#00f1ff"/><stop offset=".231" stop-color="#00d8ff"/><stop offset=".5138" stop-color="#00c0ff"/><stop offset=".7773" stop-color="#00b2ff"/><stop offset="1" stop-color="#00adff"/></linearGradient><path d="m512 256c0 141.386719-114.613281 256-256 256s-256-114.613281-256-256 114.613281-256 256-256 256 114.613281 256 256zm0 0" fill="url(#a)"/><g fill="#fff"><path d="m254.796875 433.433594c-15.808594 0-31.050781-8.878906-38.289063-23.964844-.027343-.058594-.054687-.113281-.082031-.171875l-34.289062-73.863281-8.804688 17.582031c-.359375.714844-.773437 1.402344-1.242187 2.050781-7.914063 10.980469-20.902344 14.882813-30.511719 14.882813-.074219 0-.152344 0-.226563 0-10.71875-.070313-21.378906-4.660157-29.253906-12.59375-8.167968-8.234375-12.667968-19.164063-12.667968-30.773438v-106.71875c0-8.285156 6.714843-15 15-15 8.285156 0 15 6.714844 15 15v106.71875c0 7.832031 6.386718 13.332031 12.117187 13.367188 2.046875-.011719 4.507813-.820313 5.730469-1.910157l21.960937-43.839843c2.542969-5.082031 7.738281-8.285157 13.410157-8.285157h.222656c5.757812.089844 10.957031 3.460938 13.382812 8.683594l47.335938 101.964844c2.914062 5.976562 10.171875 8.5625 16.210937 5.765625 3.015625-1.394531 5.296875-3.890625 6.414063-7.019531 1.121094-3.132813.9375-6.507813-.515625-9.5-.015625-.03125-.03125-.066406-.046875-.097656l-47.242188-99.289063c-2.210937-4.648437-1.886718-10.105469.863282-14.453125 2.75-4.355469 7.535156-6.992188 12.683593-6.992188h49.261719c6.742188-.359374 9.515625-5.382812 10.402344-7.542968.695312-1.695313 2.558594-7.539063-2.011719-12.738282l-140.574219-127.363281c-5.234375-4.289062-10.582031-2.539062-12.648437-1.578125-2.089844.96875-6.957031 3.976563-6.957031 10.898438v25.664062c0 8.285156-6.714844 15-15 15-8.28125 0-15-6.714844-15-15v-25.664062c0-16.539063 9.320312-31.144532 24.324218-38.109375 15-6.964844 32.167969-4.664063 44.804688 6.007812.132812.113281.265625.226563.394531.34375l141.316406 128.035157c.292969.265624.574219.542968.84375.828124 11.488281 12.1875 14.660157 29.445313 8.269531 45.046876-6.351562 15.515624-20.636718 25.542968-37.273437 26.164062-.183594.003906-.371094.007812-.558594.007812h-25.847656l37.015625 77.792969c4.972656 10.285157 5.59375 21.871094 1.75 32.628907-3.851562 10.777343-11.6875 19.355468-22.074219 24.160156-5.683593 2.628906-11.683593 3.875-17.597656 3.875zm0 0"/><path d="m365.011719 248.261719c-7.460938 0-13.507813 6.046875-13.507813 13.507812 0 7.460938 6.046875 13.511719 13.507813 13.511719 7.460937 0 13.507812-6.050781 13.507812-13.511719 0-7.460937-6.046875-13.507812-13.507812-13.507812zm0 0"/><path d="m365.011719 229.488281c-8.285157 0-15-6.714843-15-15v-7.503906c0-17.238281 10.128906-32.703125 25.804687-39.398437 10.046875-4.289063 16.582032-14.039063 16.75-24.929688-.003906-.148438-.007812-.296875-.007812-.441406 0-15.191406-12.355469-27.550782-27.546875-27.550782-15.1875 0-27.546875 12.359376-27.546875 27.550782 0 8.28125-6.714844 15-15 15s-15-6.71875-15-15c0-31.734375 25.816406-57.550782 57.546875-57.550782 31.519531 0 57.203125 25.476563 57.542969 56.914063.011718.207031.015624.417969.015624.632813.003907 23.101562-13.722656 43.894531-34.972656 52.964843-4.609375 1.96875-7.585937 6.601563-7.585937 11.808594v7.503906c0 8.285157-6.714844 15-15 15zm0 0"/></g></svg>